# xmcd CD database file
#
# Track frame offsets:
#	150
#	23801
#	40050
#	63131
#	75373
#	91242
#	115444
#	131077
#	155746
#	169941
#	194322
#	206993
#	232591
#	248744
#
# Disc length: 3554 seconds
#
# Revision: 0
# Processed by: cddbd v1.5.1PL0 Copyright (c) Steve Scherf et al.
# Submitted via: CDex 1.51
#
DISCID=b10de00e
DTITLE=Tom McDermott - Choro do Norte
DYEAR=2005
DGENRE=Jazz
TTITLE0=Casa Denise
TTITLE1=Atrapado
TTITLE2=Santa Teresa
TTITLE3=Choro for Tom
TTITLE4=Sweetheart of Mine
TTITLE5=Swipesy Cakewalk
TTITLE6=Lizinha
TTITLE7=Heliotrope Bouquet
TTITLE8=Choro #1
TTITLE9=Estatico
TTITLE10=Realidade é Saudade
TTITLE11=The Chrysanthemum
TTITLE12=Driving with Jacob
TTITLE13=Bamboula
EXTD=YEAR: 2005
EXTT0=
EXTT1=
EXTT2=
EXTT3=
EXTT4=
EXTT5=
EXTT6=
EXTT7=
EXTT8=
EXTT9=
EXTT10=
EXTT11=
EXTT12=
EXTT13=
PLAYORDER=
